<svg width="1884" xmlns="http://www.w3.org/2000/svg" height="1920" id="screenshot-355077a4-e27d-807b-8007-bcf447f6d23a" viewBox="0 0 1884 1920" xmlns:xlink="http://www.w3.org/1999/xlink" fill="none" version="1.1"><g id="shape-355077a4-e27d-807b-8007-bcf447f6d23a" preserveAspectRatio="none" width="471" height="480" rx="0" ry="0" style="fill: rgb(0, 0, 0);"><defs><linearGradient x1="660.911" y1="1350.13" x2="298.399" y2="1649.93" id="render-1-a" gradientUnits="userSpaceOnUse" class="svg-def" gradientTransform="matrix(1.000000, 0.000000, 0.000000, 1.000000, 0.000000, 0.000000)"><stop class="stop0" offset="0" stop-color="#DD53B2"/><stop class="stop1" offset="1" stop-color="#9C30EA"/></linearGradient><linearGradient x1="1001.32" y1="1423.07" x2="790.652" y2="1558.24" id="render-1-b" gradientUnits="userSpaceOnUse" class="svg-def" gradientTransform="matrix(1.000000, 0.000000, 0.000000, 1.000000, 0.000000, 0.000000)"><stop class="stop0" offset="0" stop-color="#F8738D"/><stop class="stop1" offset="1" stop-color="#DC57B4"/></linearGradient><linearGradient x1="1669.04" y1="919.202" x2="937.574" y2="1350.53" id="render-1-c" gradientUnits="userSpaceOnUse" class="svg-def" gradientTransform="matrix(1.000000, 0.000000, 0.000000, 1.000000, 0.000000, 0.000000)"><stop class="stop0" offset="0" stop-color="#FFE04F"/><stop class="stop1" offset="1" stop-color="#F9738E"/></linearGradient></defs><g id="shape-355077a4-e27d-807b-8007-bcf447f7edd5" style="display: none;"><g class="fills" id="fills-355077a4-e27d-807b-8007-bcf447f7edd5"><rect width="1884" height="1920" x="0" transform="matrix(1.000000, 0.000000, 0.000000, 1.000000, 0.000000, 0.000000)" style="display: block; fill: none;" ry="0" fill="none" rx="0" y="0"/></g></g><g id="shape-355077a4-e27d-807b-8007-bcf447f7edd6"><defs style="display: block; fill: rgb(0, 0, 0);"/></g><g id="shape-355077a4-e27d-807b-8007-bcf447f8a47f"><g class="fills" id="fills-355077a4-e27d-807b-8007-bcf447f8a47f"><path d="M363.0169677734375,280.55499267578125C416.4310302734375,242.21600341796875,527.7069702148438,249.488037109375,589.60302734375,260.1510009765625C763.8699951171875,290.1730041503906,939.4439697265625,366.3689880371094,1095.280029296875,447.9739990234375C1153.760009765625,478.5639953613281,1211.239990234375,511.05499267578125,1267.5999755859375,545.3939819335938C1311.510009765625,572.7410278320312,1475.9100341796875,681.6500244140625,1497.010009765625,721.77197265625C1499.0799560546875,720.5819702148438,1500.3399658203125,719.302001953125,1502.8499755859375,719.8419799804688C1511.0999755859375,721.6170043945312,1521.739990234375,735.8729858398438,1528.06005859375,741.8070068359375C1541.030029296875,753.9959716796875,1554.6300048828125,765.3670043945312,1567.22998046875,778.0009765625C1600.050048828125,810.9030151367188,1631.699951171875,850.9929809570312,1654.7099609375,891.2490234375C1682.6600341796875,940.1510009765625,1695.0899658203125,995.656005859375,1679.56005859375,1050.8800048828125C1667.3399658203125,1094.3599853515625,1642.93994140625,1130.9300537109375,1615.300048828125,1166.06005859375C1505.449951171875,1305.6800537109375,1319.949951171875,1425.719970703125,1165.2900390625,1511.739990234375C1137.02001953125,1527.4599609375,1108.3900146484375,1543.010009765625,1079.5400390625,1557.6099853515625C1027.25,1583.7900390625,974.9990234375,1610.280029296875,920.992919921875,1632.8299560546875C905.9210205078125,1639.1199951171875,881.77099609375,1650.4200439453125,866.718994140625,1655.239990234375C856.031005859375,1660.6400146484375,830.4019775390625,1669.8299560546875,818.0419921875,1674.030029296875C680.5609741210938,1720.780029296875,440.156982421875,1807.0999755859375,323.31298828125,1682.050048828125C248.92401123046875,1602.4300537109375,218.1090087890625,1454.010009765625,201.69400024414062,1349.530029296875C198.11599731445312,1326.760009765625,190.9420166015625,1280.6500244140625,191.17300415039062,1257.06005859375C180.75,1172.510009765625,177.885986328125,1067.02001953125,178.468994140625,980.9730224609375C180.125,796.9619750976562,188.06100463867188,605.3499755859375,251.947021484375,430.9230041503906C269.9010009765625,381.9020080566406,314.1710205078125,301.9639892578125,363.0169677734375,280.55499267578125Z" style="display: block; fill: rgb(67, 121, 235);"/></g></g><g id="shape-355077a4-e27d-807b-8007-bcf447f8cda5"><g class="fills" id="fills-355077a4-e27d-807b-8007-bcf447f8cda5"><path d="M363.0169677734375,280.55499267578125C371.22100830078125,280.8340148925781,405.3759765625,258.89599609375,417.791015625,260.9959716796875L417.8680419921875,260.95001220703125L417.134033203125,263.0830078125C414.17999267578125,263.885986328125,414.386962890625,263.8800048828125,411.35699462890625,263.4649658203125L409.44500732421875,264.81500244140625C409.19500732421875,269.02001953125,408.54901123046875,267.3790283203125,410.39404296875,270.26300048828125C412.30499267578125,270.24200439453125,413.6180419921875,270.1500244140625,415.4119873046875,270.87799072265625C415.3389892578125,276.24700927734375,412.8709716796875,274.8110046386719,412.33099365234375,278.0639953613281L416.17401123046875,277.2659912109375L417.77301025390625,278.90301513671875C415.6650390625,280.92999267578125,415.53900146484375,280.5880126953125,412.5849609375,281.52899169921875C410.08099365234375,286.6000061035156,426.343017578125,307.7239990234375,430.926025390625,311.57501220703125C453.37799072265625,330.44500732421875,480.093994140625,346.33099365234375,504,363.0069885253906C520.5070190429688,374.52099609375,521.9320068359375,409.24700927734375,532.1309814453125,424.5249938964844C539.9719848632812,436.2720031738281,531.3579711914062,434.9540100097656,534.0919799804688,446.29998779296875C538.3090209960938,453.8370056152344,557.1439819335938,468.0429992675781,564.9229736328125,470.9129943847656C568.166015625,470.489013671875,569.9240112304688,468.7149963378906,572.6090087890625,466.7409973144531C577.6270141601562,466.5679931640625,583.5640258789062,473.302001953125,589.469970703125,476.4809875488281L590.25,477.906005859375C593.6740112304688,479.28900146484375,597.7260131835938,477.87799072265625,601.5789794921875,478.1369934082031C608.3159790039062,478.5889892578125,625.0579833984375,490.1029968261719,629.9359741210938,494.4079895019531L628.64599609375,493.3349914550781L627.4619750976562,496.0010070800781C608.7769775390625,498.0360107421875,592.5789794921875,507.09600830078125,577.4320068359375,509.2760009765625C581.8790283203125,510.3739929199219,622.4329833984375,499.0710144042969,630.6640014648438,497.4440002441406C652.9910278320312,493.02899169921875,677.5009765625,488.42498779296875,700.1649780273438,485.1610107421875C702.718994140625,484.79400634765625,702.843994140625,485.56298828125,703.8889770507812,486.74798583984375C702.9130249023438,488.9779968261719,702.8369750976562,488.8689880371094,701.0859985351562,490.61700439453125C702.6240234375,493.7019958496094,706.322021484375,500.7430114746094,709.6920166015625,501.6629943847656C699.6500244140625,517.85302734375,754.0469970703125,544.4769897460938,761.64208984375,555.364990234375C762.06396484375,555.9710083007812,760.8179931640625,559.2789916992188,760.60302734375,559.8400268554688C765.3489990234375,566.6320190429688,770.1610107421875,565.7239990234375,771.27099609375,574.6829833984375C767.93994140625,576.5590209960938,759.5440063476562,577.6680297851562,754.2319946289062,579.1829833984375C735.3560180664062,584.5650024414062,673.2919921875,606.8140258789062,662.1959838867188,620.8289794921875L661.2260131835938,621.6489868164062C655.541015625,626.3690185546875,646.260009765625,631.5759887695312,639.9030151367188,636.0889892578125C469.26800537109375,757.2349853515625,434.39300537109375,995.7930297851562,566.510986328125,1158.6500244140625C629.1719970703125,1234.719970703125,719.0889892578125,1283.280029296875,817.06201171875,1293.949951171875C871.169921875,1298.989990234375,925.72802734375,1292.3199462890625,977.030029296875,1274.4000244140625C988.090087890625,1270.6500244140625,1004.330078125,1262.1300048828125,1012.8599853515625,1259.52001953125C1026.1500244140625,1260.1400146484375,1072.530029296875,1224.5799560546875,1085.6700439453125,1216.97998046875C1088.199951171875,1215.52001953125,1091.27001953125,1209.1800537109375,1095.510009765625,1207.6300048828125C1096,1209.75,1096.1400146484375,1210.719970703125,1097.510009765625,1212.4300537109375C1101.6400146484375,1213.6400146484375,1099.8699951171875,1213.0400390625,1104.9000244140625,1211.97998046875C1105.3399658203125,1212.77001953125,1105.780029296875,1213.56005859375,1106.2099609375,1214.3399658203125C1114.5899658203125,1215.9100341796875,1124.530029296875,1210.6400146484375,1133.469970703125,1210.469970703125L1134.030029296875,1211.5699462890625C1136.0799560546875,1215.5699462890625,1136.1300048828125,1216.030029296875,1139.4300537109375,1218.81005859375C1144.469970703125,1220.06005859375,1147.81005859375,1217.449951171875,1153.5799560546875,1215.1500244140625L1156.9300537109375,1210.5799560546875C1161.280029296875,1213.27001953125,1165.27001953125,1216.31005859375,1170.199951171875,1216.97998046875C1173.7099609375,1215.9200439453125,1172.489990234375,1216.93994140625,1174.3900146484375,1214.4200439453125C1173.4100341796875,1209.3499755859375,1168.6800537109375,1209.4100341796875,1169.030029296875,1205.5699462890625C1173.449951171875,1204.0999755859375,1177.0799560546875,1204.47998046875,1181.760009765625,1204.5C1184.1400146484375,1201.6700439453125,1185.050048828125,1199.510009765625,1188.0699462890625,1198.7900390625C1196.6400146484375,1202.1099853515625,1197.489990234375,1192.5899658203125,1205.8399658203125,1193.8399658203125C1211.010009765625,1194.6099853515625,1209.0699462890625,1198.8900146484375,1213.1600341796875,1199.02001953125C1217.239990234375,1199.2099609375,1219.239990234375,1200.2900390625,1222.4100341796875,1202.5899658203125L1225.06005859375,1202.219970703125L1225.0799560546875,1203.3499755859375C1218.3699951171875,1209.75,1207.3800048828125,1215.06005859375,1199.5999755859375,1220.489990234375C1172.75,1239.25,1144,1254.81005859375,1115.449951171875,1270.75C1115.1700439453125,1270.9100341796875,1114.300048828125,1272.9300537109375,1114.219970703125,1273.47998046875C1087.1800537109375,1292,1040.4300537109375,1311.7900390625,1010.300048828125,1326.75C1003.330078125,1330.2099609375,964.294921875,1345.68994140625,961.136962890625,1348.4000244140625L957.5360107421875,1352.0799560546875C958.9019775390625,1358.6400146484375,951.3779296875,1361.5799560546875,954.3489990234375,1369.5400390625L955.4439697265625,1370.3800048828125C962.8280029296875,1376.1199951171875,963.178955078125,1377.3900146484375,961.762939453125,1386.6500244140625C969.781982421875,1399.6500244140625,970.553955078125,1399.8399658203125,975.2860107421875,1414.3499755859375C991.5029296875,1421.5,991.2490234375,1430.0999755859375,1000.75,1443.1400146484375C1017.72998046875,1466.4599609375,1019.780029296875,1497.9100341796875,1042.68994140625,1516.1500244140625C1052.25,1523.760009765625,1053.4000244140625,1526.0699462890625,1053.9599609375,1537.449951171875C1060.739990234375,1543.3399658203125,1063.969970703125,1540.8900146484375,1064.56005859375,1549.0799560546875C1064.699951171875,1551.1099853515625,1064.8199462890625,1553.1400146484375,1064.9200439453125,1555.1700439453125C1068.56005859375,1558.199951171875,1074.969970703125,1554.4599609375,1079.5400390625,1557.6099853515625C1027.25,1583.7900390625,974.9990234375,1610.280029296875,920.992919921875,1632.8299560546875C905.9210205078125,1639.1199951171875,881.77099609375,1650.4200439453125,866.718994140625,1655.239990234375C856.031005859375,1660.6400146484375,830.4019775390625,1669.8299560546875,818.0419921875,1674.030029296875C680.5609741210938,1720.780029296875,440.156982421875,1807.0999755859375,323.31298828125,1682.050048828125C248.92401123046875,1602.4300537109375,218.1090087890625,1454.010009765625,201.69400024414062,1349.530029296875C198.11599731445312,1326.760009765625,190.9420166015625,1280.6500244140625,191.17300415039062,1257.06005859375C180.75,1172.510009765625,177.885986328125,1067.02001953125,178.468994140625,980.9730224609375C180.125,796.9619750976562,188.06100463867188,605.3499755859375,251.947021484375,430.9230041503906C269.9010009765625,381.9020080566406,314.1710205078125,301.9639892578125,363.0169677734375,280.55499267578125Z" style="display: block; fill: rgb(67, 121, 235);"/></g></g><g id="shape-355077a4-e27d-807b-8007-bcf447f9110d"><defs><linearGradient x1="660.911" y1="1350.13" x2="298.399" y2="1649.93" id="render-6-a" gradientUnits="userSpaceOnUse" gradientTransform="matrix(1.000000, 0.000000, 0.000000, 1.000000, 0.000000, 0.000000)"><stop class="stop0" offset="0" stop-color="#DD53B2"/><stop class="stop1" offset="1" stop-color="#9C30EA"/></linearGradient></defs><g class="fills" id="fills-355077a4-e27d-807b-8007-bcf447f9110d"><path d="M191.17300415039062,1257.06005859375C191.5,1257.1800537109375,194.73199462890625,1258.3299560546875,194.73199462890625,1258.3299560546875C201.01300048828125,1267.97998046875,206.10299682617188,1278.6400146484375,211.9019775390625,1288.6099853515625C217.6099853515625,1298.2099609375,223.99099731445312,1307.4000244140625,230.99798583984375,1316.1099853515625C328.511962890625,1434.8699951171875,503.2640380859375,1450.3599853515625,645.2899780273438,1433.4300537109375C669.1929931640625,1430.5799560546875,694.2230224609375,1425.75,718.0040283203125,1421.5699462890625C730.0689697265625,1418.530029296875,743.0479736328125,1416.530029296875,755.31298828125,1413.719970703125C826.0859375,1397.52001953125,893.6829833984375,1375.4000244140625,961.136962890625,1348.4000244140625L957.5360107421875,1352.0799560546875C958.9019775390625,1358.6400146484375,951.3779296875,1361.5799560546875,954.3489990234375,1369.5400390625L955.4439697265625,1370.3800048828125C962.8280029296875,1376.1199951171875,963.178955078125,1377.3900146484375,961.762939453125,1386.6500244140625C969.781982421875,1399.6500244140625,970.553955078125,1399.8399658203125,975.2860107421875,1414.3499755859375C991.5029296875,1421.5,991.2490234375,1430.0999755859375,1000.75,1443.1400146484375C1017.72998046875,1466.4599609375,1019.780029296875,1497.9100341796875,1042.68994140625,1516.1500244140625C1052.25,1523.760009765625,1053.4000244140625,1526.0699462890625,1053.9599609375,1537.449951171875C1060.739990234375,1543.3399658203125,1063.969970703125,1540.8900146484375,1064.56005859375,1549.0799560546875C1064.699951171875,1551.1099853515625,1064.8199462890625,1553.1400146484375,1064.9200439453125,1555.1700439453125C1068.56005859375,1558.199951171875,1074.969970703125,1554.4599609375,1079.5400390625,1557.6099853515625C1027.25,1583.7900390625,974.9990234375,1610.280029296875,920.992919921875,1632.8299560546875C905.9210205078125,1639.1199951171875,881.77099609375,1650.4200439453125,866.718994140625,1655.239990234375C856.031005859375,1660.6400146484375,830.4019775390625,1669.8299560546875,818.0419921875,1674.030029296875C680.5609741210938,1720.780029296875,440.156982421875,1807.0999755859375,323.31298828125,1682.050048828125C248.92401123046875,1602.4300537109375,218.1090087890625,1454.010009765625,201.69400024414062,1349.530029296875C198.11599731445312,1326.760009765625,190.9420166015625,1280.6500244140625,191.17300415039062,1257.06005859375Z" fill="url(#render-6-a)" style="display: block; fill: url(&quot;#render-6-a&quot;);"/></g></g><g id="shape-355077a4-e27d-807b-8007-bcf447f950de"><defs><linearGradient x1="1001.32" y1="1423.07" x2="790.652" y2="1558.24" id="render-7-b" gradientUnits="userSpaceOnUse" gradientTransform="matrix(1.000000, 0.000000, 0.000000, 1.000000, 0.000000, 0.000000)"><stop class="stop0" offset="0" stop-color="#F8738D"/><stop class="stop1" offset="1" stop-color="#DC57B4"/></linearGradient></defs><g class="fills" id="fills-355077a4-e27d-807b-8007-bcf447f950de"><path d="M718.0040283203125,1421.5699462890625C730.0689697265625,1418.530029296875,743.0479736328125,1416.530029296875,755.31298828125,1413.719970703125C826.0859375,1397.52001953125,893.6829833984375,1375.4000244140625,961.136962890625,1348.4000244140625L957.5360107421875,1352.0799560546875C958.9019775390625,1358.6400146484375,951.3779296875,1361.5799560546875,954.3489990234375,1369.5400390625L955.4439697265625,1370.3800048828125C962.8280029296875,1376.1199951171875,963.178955078125,1377.3900146484375,961.762939453125,1386.6500244140625C969.781982421875,1399.6500244140625,970.553955078125,1399.8399658203125,975.2860107421875,1414.3499755859375C991.5029296875,1421.5,991.2490234375,1430.0999755859375,1000.75,1443.1400146484375C1017.72998046875,1466.4599609375,1019.780029296875,1497.9100341796875,1042.68994140625,1516.1500244140625C1052.25,1523.760009765625,1053.4000244140625,1526.0699462890625,1053.9599609375,1537.449951171875C1060.739990234375,1543.3399658203125,1063.969970703125,1540.8900146484375,1064.56005859375,1549.0799560546875C1064.699951171875,1551.1099853515625,1064.8199462890625,1553.1400146484375,1064.9200439453125,1555.1700439453125C1068.56005859375,1558.199951171875,1074.969970703125,1554.4599609375,1079.5400390625,1557.6099853515625C1027.25,1583.7900390625,974.9990234375,1610.280029296875,920.992919921875,1632.8299560546875C905.9210205078125,1639.1199951171875,881.77099609375,1650.4200439453125,866.718994140625,1655.239990234375C869.050048828125,1650.9300537109375,871.301025390625,1652.3599853515625,872.56103515625,1649.3399658203125C870.967041015625,1647.52001953125,869.5689697265625,1646.4100341796875,869.281982421875,1644.0699462890625L871.5560302734375,1643.260009765625C869.248046875,1637.510009765625,865.2099609375,1629.3199462890625,859.85302734375,1626.280029296875C848.7559814453125,1619.97998046875,846.820068359375,1606.56005859375,838.123046875,1597.510009765625C828.656005859375,1587.6500244140625,816.6630859375,1579.3299560546875,807.01806640625,1569.5799560546875C805.083984375,1567.6300048828125,801.489990234375,1560.1300048828125,799.2030029296875,1557.02001953125C787.2230224609375,1556.72998046875,782.7890625,1533.47998046875,776.157958984375,1523.6400146484375C770.2550048828125,1514.8900146484375,756.8670043945312,1505.9300537109375,752.8610229492188,1498.9000244140625C741.9320068359375,1479.7099609375,731.9500122070312,1459.6700439453125,720.593017578125,1440.6500244140625C717.5490112304688,1435.4000244140625,727.197998046875,1427.4200439453125,718.0040283203125,1421.5699462890625Z" fill="url(#render-7-b)" style="display: block; fill: url(&quot;#render-7-b&quot;);"/></g></g><g id="shape-355077a4-e27d-807b-8007-bcf447f950df"><g class="fills" id="fills-355077a4-e27d-807b-8007-bcf447f950df"><path d="M1184.1199951171875,1214.6099853515625C1186.1400146484375,1216.3900146484375,1185.530029296875,1215.75,1186.97998046875,1218.0699462890625C1185.739990234375,1221.0400390625,1183.31005859375,1222.8599853515625,1180.9300537109375,1225.1199951171875C1178.280029296875,1223.8299560546875,1178.06005859375,1223.989990234375,1176.239990234375,1221.760009765625L1176.77001953125,1220.1199951171875C1180.2099609375,1218,1181.0699462890625,1217.31005859375,1184.1199951171875,1214.6099853515625Z" style="display: block; fill: rgb(67, 121, 235);"/></g></g><g id="shape-355077a4-e27d-807b-8007-bcf447f950e0"><g class="fills" id="fills-355077a4-e27d-807b-8007-bcf447f950e0"><path d="M662.1959838867188,620.8289794921875C730.85302734375,584.1500244140625,777.3480224609375,568.9229736328125,855.741943359375,568.8330078125C806.028076171875,599.7440185546875,763.9949951171875,665.5349731445312,750.4169921875,722.1630249023438C732.8040161132812,795.6160278320312,741.9530029296875,865.18701171875,781.968017578125,929.5250244140625C820.7760009765625,992.0040283203125,883.153076171875,1036.1800537109375,954.970947265625,1052.050048828125C1024.8699951171875,1067.6800537109375,1098.1199951171875,1054.9200439453125,1158.6199951171875,1016.5800170898438C1179.02001953125,1003.6799926757812,1209.6500244140625,978.8629760742188,1220.75,957.8070068359375C1218.449951171875,975.4089965820312,1217.719970703125,988.6840209960938,1213.949951171875,1006.1699829101562C1196.81005859375,1088.4200439453125,1151.06005859375,1161.9300537109375,1084.8299560546875,1213.6400146484375C1066,1228.1300048828125,1047.739990234375,1241.1600341796875,1026.6099853515625,1251.949951171875C1022.3800048828125,1254.1099853515625,1016.800048828125,1256.989990234375,1012.8599853515625,1259.52001953125C1004.330078125,1262.1300048828125,988.090087890625,1270.6500244140625,977.030029296875,1274.4000244140625C925.72802734375,1292.3199462890625,871.169921875,1298.989990234375,817.06201171875,1293.949951171875C719.0889892578125,1283.280029296875,629.1719970703125,1234.719970703125,566.510986328125,1158.6500244140625C434.39300537109375,995.7930297851562,469.26800537109375,757.2349853515625,639.9030151367188,636.0889892578125C646.260009765625,631.5759887695312,655.541015625,626.3690185546875,661.2260131835938,621.6489868164062L662.1959838867188,620.8289794921875Z" style="display: block; fill: rgb(255, 255, 255);"/></g></g><g id="shape-355077a4-e27d-807b-8007-bcf447f98e9e"><defs><linearGradient x1="1669.04" y1="919.202" x2="937.574" y2="1350.53" id="render-10-c" gradientUnits="userSpaceOnUse" gradientTransform="matrix(1.000000, 0.000000, 0.000000, 1.000000, 0.000000, 0.000000)"><stop class="stop0" offset="0" stop-color="#FFE04F"/><stop class="stop1" offset="1" stop-color="#F9738E"/></linearGradient></defs><g class="fills" id="fills-355077a4-e27d-807b-8007-bcf447f98e9e"><path d="M1497.010009765625,721.77197265625C1499.0799560546875,720.5819702148438,1500.3399658203125,719.302001953125,1502.8499755859375,719.8419799804688C1511.0999755859375,721.6170043945312,1521.739990234375,735.8729858398438,1528.06005859375,741.8070068359375C1541.030029296875,753.9959716796875,1554.6300048828125,765.3670043945312,1567.22998046875,778.0009765625C1600.050048828125,810.9030151367188,1631.699951171875,850.9929809570312,1654.7099609375,891.2490234375C1682.6600341796875,940.1510009765625,1695.0899658203125,995.656005859375,1679.56005859375,1050.8800048828125C1667.3399658203125,1094.3599853515625,1642.93994140625,1130.9300537109375,1615.300048828125,1166.06005859375C1505.449951171875,1305.6800537109375,1319.949951171875,1425.719970703125,1165.2900390625,1511.739990234375C1137.02001953125,1527.4599609375,1108.3900146484375,1543.010009765625,1079.5400390625,1557.6099853515625C1074.969970703125,1554.4599609375,1068.56005859375,1558.199951171875,1064.9200439453125,1555.1700439453125C1064.8199462890625,1553.1400146484375,1064.699951171875,1551.1099853515625,1064.56005859375,1549.0799560546875C1063.969970703125,1540.8900146484375,1060.739990234375,1543.3399658203125,1053.9599609375,1537.449951171875C1053.4000244140625,1526.0699462890625,1052.25,1523.760009765625,1042.68994140625,1516.1500244140625C1019.780029296875,1497.9100341796875,1017.72998046875,1466.4599609375,1000.75,1443.1400146484375C991.2490234375,1430.0999755859375,991.5029296875,1421.5,975.2860107421875,1414.3499755859375C970.553955078125,1399.8399658203125,969.781982421875,1399.6500244140625,961.762939453125,1386.6500244140625C963.178955078125,1377.3900146484375,962.8280029296875,1376.1199951171875,955.4439697265625,1370.3800048828125L954.3489990234375,1369.5400390625C951.3779296875,1361.5799560546875,958.9019775390625,1358.6400146484375,957.5360107421875,1352.0799560546875L961.136962890625,1348.4000244140625C964.294921875,1345.68994140625,1003.330078125,1330.2099609375,1010.300048828125,1326.75C1040.4300537109375,1311.7900390625,1087.1800537109375,1292,1114.219970703125,1273.47998046875C1118.56005859375,1271.31005859375,1122.8499755859375,1269.050048828125,1127.0899658203125,1266.7099609375C1273.0799560546875,1187.0999755859375,1446.4100341796875,1056.239990234375,1512.02001953125,896.0960083007812C1537.06005859375,834.9979858398438,1528.3599853515625,778.60302734375,1497.010009765625,721.77197265625Z" fill="url(#render-10-c)" style="display: block; fill: url(&quot;#render-10-c&quot;);"/></g></g></g></svg>